<svg width="37" height="38" viewBox="0 0 37 38" fill="none" xmlns="http://www.w3.org/2000/svg">
<g clip-path="url(#clip0_11_28)">
<path d="M29.1683 9.51585C28.86 8.58169 27.9967 7.91669 26.9792 7.91669H10.0208C9.00333 7.91669 8.15542 8.58169 7.83167 9.51585L4.625 19V31.6667C4.625 32.5375 5.31875 33.25 6.16667 33.25H7.70833C8.55625 33.25 9.25 32.5375 9.25 31.6667V30.0834H27.75V31.6667C27.75 32.5375 28.4437 33.25 29.2917 33.25H30.8333C31.6812 33.25 32.375 32.5375 32.375 31.6667V19L29.1683 9.51585ZM10.5604 11.0834H26.4242L28.0892 16.0075H8.89542L10.5604 11.0834ZM29.2917 26.9167H7.70833V19H29.2917V26.9167Z" fill="#323232"/>
<path d="M11.5625 25.3333C12.8397 25.3333 13.875 24.27 13.875 22.9583C13.875 21.6466 12.8397 20.5833 11.5625 20.5833C10.2853 20.5833 9.25 21.6466 9.25 22.9583C9.25 24.27 10.2853 25.3333 11.5625 25.3333Z" fill="#323232"/>
<path d="M25.4375 25.3333C26.7147 25.3333 27.75 24.27 27.75 22.9583C27.75 21.6466 26.7147 20.5833 25.4375 20.5833C24.1603 20.5833 23.125 21.6466 23.125 22.9583C23.125 24.27 24.1603 25.3333 25.4375 25.3333Z" fill="#323232"/>
</g>
<defs>
<clipPath id="clip0_11_28">
<rect width="37" height="38" fill="white"/>
</clipPath>
</defs>
</svg>
