<svg width="37" height="38" viewBox="0 0 37 38" fill="none" xmlns="http://www.w3.org/2000/svg">
<g clip-path="url(#clip0_11_45)">
<path d="M11.7012 8.56584C10.4987 7.33084 10.4987 5.32 11.7012 4.085C12.9037 2.85 14.8617 2.85 16.0642 4.085C17.2667 5.32 17.2667 7.33084 16.0642 8.56584C14.8462 9.81667 12.9037 9.81667 11.7012 8.56584ZM9.24999 25.3333V11.0833H6.16666V25.3333C6.16666 29.7033 9.61999 33.25 13.875 33.25H23.125V30.0833H13.875C11.3158 30.0833 9.24999 27.9617 9.24999 25.3333ZM30.8333 31.7775L23.0171 23.75H17.7292V17.9233C19.8875 19.7442 23.2792 21.3433 26.2083 21.3433V17.9233C23.6492 17.955 20.6429 16.5458 19.0087 14.6933L16.8504 12.2392C16.5575 11.9067 16.1875 11.6375 15.7867 11.4475C15.3396 11.2258 14.8308 11.0833 14.3067 11.0833H14.2604C12.3487 11.0833 10.7917 12.6825 10.7917 14.6458V23.75C10.7917 26.3783 12.8575 28.5 15.4167 28.5H23.2329L28.6287 34.0417L30.8333 31.7775Z" fill="#323232"/>
</g>
<defs>
<clipPath id="clip0_11_45">
<rect width="37" height="38" fill="white"/>
</clipPath>
</defs>
</svg>
