<?xml version="1.0" standalone="no"?>
<!DOCTYPE svg PUBLIC "-//W3C//DTD SVG 20010904//EN"
 "http://www.w3.org/TR/2001/REC-SVG-20010904/DTD/svg10.dtd">
<svg version="1.0" xmlns="http://www.w3.org/2000/svg"
 width="400.000000pt" height="400.000000pt" viewBox="0 0 400.000000 400.000000"
 preserveAspectRatio="xMidYMid meet">

<g transform="translate(0.000000,400.000000) scale(0.100000,-0.100000)"
fill="#000000" stroke="none">
<path d="M0 2000 l0 -2000 2000 0 2000 0 0 2000 0 2000 -2000 0 -2000 0 0
-2000z m1251 413 c1 -186 4 -327 6 -313 59 354 329 612 675 646 l68 7 1 -339
c1 -309 2 -333 14 -274 29 141 91 262 187 365 211 226 512 301 801 200 105
-36 173 -81 273 -180 77 -76 98 -104 137 -185 65 -132 82 -201 81 -340 0 -88
-5 -133 -22 -193 -76 -267 -284 -469 -550 -534 -89 -21 -256 -21 -347 1 -164
39 -344 162 -437 298 -66 99 -116 224 -131 333 -2 17 -5 -124 -6 -313 l-1
-342 -57 6 c-231 24 -410 125 -550 309 -62 81 -113 206 -133 323 -4 28 -8 -92
-9 -296 l-1 -343 -57 6 c-188 22 -316 79 -452 201 -100 90 -178 220 -217 364
-24 89 -25 272 -1 360 60 226 231 425 443 513 51 22 81 29 189 51 11 2 37 4
58 5 l37 1 1 -337z"/>
</g>
</svg>
