<svg width="37" height="38" viewBox="0 0 37 38" fill="none" xmlns="http://www.w3.org/2000/svg">
<g clip-path="url(#clip0_11_37)">
<path d="M30.4788 11.4475L30.4942 11.4317L24.7592 5.54167L23.125 7.22L26.3779 10.5608C24.9288 11.1308 23.8958 12.5558 23.8958 14.25C23.8958 16.435 25.6225 18.2083 27.75 18.2083C28.305 18.2083 28.8138 18.0817 29.2917 17.8758V29.2917C29.2917 30.1625 28.5979 30.875 27.75 30.875C26.9021 30.875 26.2083 30.1625 26.2083 29.2917V22.1667C26.2083 20.425 24.8208 19 23.125 19H21.5833V7.91667C21.5833 6.175 20.1958 4.75 18.5 4.75H9.25001C7.55417 4.75 6.16667 6.175 6.16667 7.91667V33.25H21.5833V21.375H23.8958V29.2917C23.8958 31.4767 25.6225 33.25 27.75 33.25C29.8775 33.25 31.6042 31.4767 31.6042 29.2917V14.25C31.6042 13.1575 31.1725 12.16 30.4788 11.4475ZM18.5 21.375V30.0833H9.25001V19H18.5V21.375ZM18.5 15.8333H9.25001V7.91667H18.5V15.8333ZM27.75 15.8333C26.9021 15.8333 26.2083 15.1208 26.2083 14.25C26.2083 13.3792 26.9021 12.6667 27.75 12.6667C28.5979 12.6667 29.2917 13.3792 29.2917 14.25C29.2917 15.1208 28.5979 15.8333 27.75 15.8333Z" fill="#323232"/>
</g>
<defs>
<clipPath id="clip0_11_37">
<rect width="37" height="38" fill="white"/>
</clipPath>
</defs>
</svg>
