<svg width="70" height="62" viewBox="0 0 70 62" fill="none" xmlns="http://www.w3.org/2000/svg">
<g clip-path="url(#clip0_7_12)">
<path d="M45.2083 34.9167H42.9042L42.0875 34.1854C44.9458 31.0979 46.6667 27.0896 46.6667 22.7292C46.6667 13.0063 38.1792 5.125 27.7083 5.125C17.2375 5.125 8.75 13.0063 8.75 22.7292C8.75 32.4521 17.2375 40.3333 27.7083 40.3333C32.4042 40.3333 36.7208 38.7354 40.0458 36.0813L40.8333 36.8396V38.9792L55.4167 52.4938L59.7625 48.4583L45.2083 34.9167V34.9167ZM27.7083 34.9167C20.4458 34.9167 14.5833 29.4729 14.5833 22.7292C14.5833 15.9854 20.4458 10.5417 27.7083 10.5417C34.9708 10.5417 40.8333 15.9854 40.8333 22.7292C40.8333 29.4729 34.9708 34.9167 27.7083 34.9167Z" fill="#323232"/>
</g>
<defs>
<clipPath id="clip0_7_12">
<rect width="70" height="65" fill="white" transform="translate(0 -3)"/>
</clipPath>
</defs>
</svg>
